<?xml version="1.0" standalone="no"?>
<!DOCTYPE svg PUBLIC "-//W3C//DTD SVG 20010904//EN"
 "http://www.w3.org/TR/2001/REC-SVG-20010904/DTD/svg10.dtd">
<svg version="1.0" xmlns="http://www.w3.org/2000/svg"
 width="298.000000pt" height="298.000000pt" viewBox="0 0 298.000000 298.000000"
 preserveAspectRatio="xMidYMid meet">
<metadata>
Created by potrace 1.14, written by Peter Selinger 2001-2017
</metadata>
<g transform="translate(0.000000,298.000000) scale(0.100000,-0.100000)"
fill="#000000" stroke="none">
<path d="M1538 2429 c-12 -6 -18 -22 -18 -45 0 -19 -7 -46 -16 -59 -14 -21
-14 -25 -2 -25 12 0 13 -9 6 -47 -18 -103 -18 -103 -2 -103 9 0 14 6 12 12 -3
7 2 19 10 27 7 8 12 24 9 37 -2 13 3 27 14 35 13 9 15 16 8 25 -7 8 -7 14 1
19 5 3 10 1 10 -5 0 -6 5 -8 10 -5 6 4 10 12 9 18 -1 7 1 20 5 29 4 9 1 29 -8
45 -8 15 -16 21 -16 13 0 -12 -3 -11 -11 3 -5 9 -7 22 -4 27 8 12 5 12 -17 -1z"/>
<path d="M1350 2375 c0 -28 22 -63 36 -58 10 4 12 0 8 -11 -3 -9 -11 -13 -17
-9 -6 4 -7 1 -2 -6 4 -7 16 -10 27 -8 19 5 19 5 2 -14 -19 -21 -14 -35 9 -26
20 8 15 87 -7 99 -9 5 -13 14 -10 20 4 6 3 8 -3 5 -6 -4 -13 0 -17 8 -7 19
-26 20 -26 0z"/>
<path d="M1685 2351 c-3 -5 -2 -12 3 -15 5 -3 9 1 9 9 0 17 -3 19 -12 6z"/>
<path d="M1713 2326 c3 -8 2 -16 -2 -18 -5 -2 1 -12 12 -23 18 -18 19 -18 14
-2 -4 10 -7 27 -7 38 0 10 -5 19 -11 19 -6 0 -9 -6 -6 -14z"/>
<path d="M1245 2300 c9 -16 17 -30 19 -30 3 0 -1 14 -7 30 -6 17 -15 30 -19
30 -5 0 -2 -13 7 -30z"/>
<path d="M865 2276 c-13 -13 -34 -31 -46 -39 -12 -9 -44 -64 -72 -124 l-51
-108 1 -168 c0 -92 3 -171 7 -174 3 -4 12 -1 18 5 15 15 32 16 23 2 -3 -5 1
-10 9 -10 28 0 17 -20 -11 -21 l-28 -1 25 -7 c24 -7 24 -7 5 -19 -17 -10 -18
-11 -2 -12 11 0 17 -8 17 -22 -1 -22 -1 -23 -15 -4 -8 11 -15 15 -15 9 0 -6 7
-16 15 -23 12 -10 19 -35 29 -120 2 -14 7 -36 12 -50 4 -14 8 -27 8 -30 0 -3
12 -27 28 -53 16 -27 25 -54 22 -60 -4 -7 -4 -9 1 -5 4 4 29 -12 56 -36 75
-67 160 -82 240 -42 25 13 29 13 19 1 -22 -27 -139 -49 -168 -31 -7 4 -12 4
-13 -1 0 -4 -2 -21 -3 -36 -1 -16 -8 -32 -16 -37 -10 -7 -11 -10 -2 -10 15 0
16 -32 0 -48 -7 -7 -8 -12 -1 -12 6 0 10 -43 11 -121 1 -82 6 -129 15 -149 9
-17 11 -33 6 -39 -5 -6 -6 -8 -2 -5 8 6 33 -75 36 -116 1 -14 9 -30 17 -37 8
-6 12 -14 8 -18 -17 -17 111 -113 133 -100 4 3 10 1 14 -5 8 -14 25 -13 25 1
0 12 38 49 50 49 3 0 11 -5 18 -12 7 -7 12 -8 12 -4 0 5 7 2 17 -5 19 -16 93
-22 93 -7 0 6 18 8 45 5 25 -2 45 0 45 4 0 5 11 4 25 -1 25 -10 72 -12 143 -6
40 4 76 24 94 52 10 15 79 9 90 -8 6 -10 8 -8 8 5 0 10 9 27 20 39 11 12 20
28 20 35 0 7 4 13 8 13 9 0 31 81 34 125 1 17 5 35 10 41 13 18 23 129 23 266
0 121 1 128 20 129 17 1 16 2 -5 9 -24 8 -24 8 6 9 47 2 131 49 169 95 63 77
105 203 105 314 0 48 3 61 13 56 10 -6 10 -4 0 7 -17 17 -16 29 1 29 8 0 19
-12 24 -27 l10 -28 -1 32 c-2 27 -6 33 -24 33 -18 0 -24 10 -38 68 -14 58 -21
89 -24 113 -1 3 -16 26 -35 50 -19 23 -34 45 -32 49 2 4 -51 60 -57 59 -1 0
-22 9 -47 20 -122 56 -260 -16 -330 -173 -37 -81 -50 -149 -50 -253 0 -48 -2
-84 -5 -81 -3 3 -6 45 -6 94 -3 138 35 253 114 353 37 47 38 76 3 69 -12 -3
-26 0 -32 6 -13 15 -11 80 3 97 6 8 7 22 2 34 -4 11 -8 15 -8 8 -1 -7 -8 -10
-16 -6 -19 7 -44 -24 -40 -46 2 -9 4 -19 4 -23 1 -5 6 -8 12 -8 8 0 8 5 -1 15
-9 10 -9 15 -1 15 6 0 11 -5 11 -11 0 -5 4 -7 10 -4 6 3 7 -1 4 -9 -3 -9 -14
-16 -24 -16 -10 0 -22 -9 -25 -20 -4 -11 -10 -18 -14 -16 -4 3 -8 -1 -8 -9 0
-8 4 -12 8 -9 4 2 10 0 14 -6 4 -6 12 -7 18 -3 7 4 6 0 -2 -10 -7 -9 -21 -17
-30 -16 -12 0 -12 2 3 8 20 8 11 19 -11 15 -7 -1 -19 -2 -25 -3 -9 -1 -9 -4 2
-12 12 -9 12 -10 -3 -5 -10 3 -22 6 -25 6 -4 1 3 6 16 13 21 12 21 14 6 32
-14 18 -15 18 -10 2 4 -12 -2 -26 -16 -39 -13 -11 -18 -17 -12 -14 7 4 13 -5
16 -22 3 -22 0 -28 -14 -28 -10 0 -17 5 -15 11 4 9 -16 36 -25 32 -2 -1 3 4
11 10 12 11 12 13 -3 19 -14 5 -15 9 -4 15 10 7 9 9 -3 9 -14 0 -34 -26 -29
-39 1 -2 -4 -7 -11 -12 -17 -10 -5 -22 24 -24 16 -1 22 -8 22 -26 0 -13 -5
-22 -10 -20 -6 1 -9 8 -7 14 3 10 -16 27 -32 27 -4 0 -5 -7 -2 -16 4 -10 2
-13 -7 -7 -20 12 -49 14 -42 2 4 -6 13 -8 21 -5 8 3 14 1 14 -4 0 -6 -7 -10
-15 -10 -8 0 -15 -5 -15 -11 0 -5 4 -7 10 -4 6 3 7 -1 4 -10 -4 -8 -11 -14
-18 -13 -6 1 -24 -6 -40 -17 -34 -22 -66 -29 -66 -14 0 5 -4 8 -8 5 -5 -3 -9
1 -9 9 0 9 5 11 11 6 6 -4 20 -11 30 -15 16 -5 17 -4 7 8 -9 11 -10 20 -1 36
10 19 10 20 -9 8 -11 -6 -18 -15 -15 -19 2 -4 -5 -5 -16 -2 -23 6 -25 14 -7
32 10 11 8 13 -10 8 -14 -3 -24 1 -27 10 -3 8 -10 11 -16 8 -7 -4 -7 2 0 19 8
21 6 26 -6 26 -9 0 -12 5 -8 11 3 6 0 15 -7 20 -10 6 -11 9 -1 9 6 0 12 5 12
11 0 5 -5 7 -10 4 -6 -4 -9 -1 -8 6 2 7 -1 13 -7 14 -5 0 -15 4 -22 8 -6 4
-18 4 -27 1 -12 -5 -11 -10 10 -29 20 -18 22 -24 9 -29 -9 -3 -15 0 -15 9 0 7
-4 17 -10 20 -6 4 -7 -1 -4 -12 4 -12 0 -10 -14 7 -18 22 -20 22 -19 5 1 -11
19 -33 39 -48 20 -15 49 -47 65 -71 17 -25 34 -41 43 -39 11 4 12 2 2 -4 -10
-8 -8 -20 9 -57 13 -31 17 -52 11 -58 -6 -6 -13 7 -21 36 -6 24 -30 73 -54
108 -73 106 -182 145 -282 99 -78 -35 -170 -164 -189 -266 -3 -11 -9 -31 -15
-45 l-10 -25 0 28 c-1 15 3 27 9 27 5 0 7 7 4 15 -7 17 46 135 80 180 13 17
27 51 31 75 3 25 9 59 11 75 3 17 12 64 20 105 18 85 17 78 15 108 -1 30 -35
29 -66 -2z m782 -323 c0 -7 -4 -13 -8 -13 -4 0 -9 6 -12 13 -3 8 0 14 7 14 7
0 13 -6 13 -14z m-827 -38 c0 -36 -12 -43 -39 -26 -12 8 -13 14 -3 35 17 39
42 34 42 -9z m760 -20 c-7 -8 -20 -15 -29 -15 -11 0 -8 5 9 14 33 19 35 19 20
1z m-89 -41 c38 12 70 16 65 8 -3 -5 12 -16 34 -25 51 -20 57 -52 8 -42 -18 4
-35 11 -36 16 -2 5 -9 6 -15 2 -8 -4 -7 -1 1 9 10 13 10 17 -3 21 -8 4 -14 1
-12 -5 2 -13 -120 -44 -130 -34 -10 10 51 62 63 54 6 -5 18 -6 25 -4z m-379
-52 c7 -7 19 -12 28 -12 28 0 70 -24 76 -45 4 -11 14 -27 23 -35 35 -32 42
-63 36 -150 -7 -106 -7 -109 -14 -107 -13 3 -81 -28 -81 -36 0 -5 -11 -7 -25
-5 -14 3 -25 2 -25 -2 0 -16 -48 -27 -90 -20 -62 10 -74 14 -82 25 -4 6 -8 -2
-8 -17 0 -18 5 -28 14 -28 8 0 18 -5 22 -12 4 -7 3 -8 -4 -4 -7 4 -12 2 -12
-3 0 -6 -7 -11 -15 -11 -16 0 -16 -21 0 -32 5 -4 6 -10 2 -14 -3 -4 -13 -2
-20 4 -8 7 -17 9 -20 5 -4 -3 1 -13 11 -21 15 -12 14 -12 -8 0 -53 31 -97 145
-103 261 -2 48 1 73 11 85 9 12 11 12 6 2 -3 -8 5 -3 20 13 15 15 31 27 36 27
6 0 9 6 7 13 -1 6 4 11 11 9 8 -1 11 2 7 7 -3 6 -13 7 -23 4 -14 -6 -15 -4 -5
9 7 8 9 19 5 24 -4 4 1 3 10 -4 14 -11 18 -10 28 8 6 11 8 26 4 32 -4 7 -3 8
4 4 7 -4 17 -4 23 0 8 4 7 9 -2 15 -7 4 -10 11 -6 15 4 4 14 -1 22 -12 14 -19
14 -19 15 1 0 15 3 16 12 7 17 -17 45 -15 52 3 6 17 40 15 58 -3z m884 -13 c3
-6 20 -9 36 -7 24 4 34 -2 56 -27 15 -18 37 -36 50 -39 12 -4 22 -11 22 -16 0
-5 16 -26 36 -46 l37 -36 -6 -77 c-4 -42 -14 -98 -23 -126 -20 -57 -57 -128
-70 -132 -5 -2 -9 26 -9 62 0 79 -9 91 -55 67 -31 -15 -57 -18 -137 -13 -38 2
-48 17 -34 48 l13 28 -26 -24 c-14 -14 -26 -19 -26 -13 0 7 -9 21 -20 32 -11
11 -17 20 -14 20 4 0 1 7 -6 15 -9 11 -11 31 -5 68 4 28 9 67 11 85 5 47 27
73 92 108 66 37 69 37 78 23z m-646 -59 c0 -5 -2 -10 -4 -10 -3 0 -8 5 -11 10
-3 6 -1 10 4 10 6 0 11 -4 11 -10z m31 -73 c-13 -13 -15 31 -3 60 5 14 8 10
10 -16 2 -18 -1 -38 -7 -44z m278 10 c1 -10 -3 -15 -9 -12 -5 3 -10 21 -9 38
0 27 2 29 9 12 5 -11 9 -28 9 -38z m-299 4 c0 -9 4 -21 9 -26 6 -6 5 -19 -3
-33 -12 -23 -13 -23 -14 13 -1 21 -4 47 -8 58 -4 13 -2 17 5 13 6 -4 11 -15
11 -25z m0 -161 c-16 -31 -23 -19 -9 16 6 16 13 24 16 17 2 -7 -1 -22 -7 -33z
m334 -55 c3 -8 1 -15 -4 -15 -6 0 -10 7 -10 15 0 8 2 15 4 15 2 0 6 -7 10 -15z
m-335 -18 c0 -9 -2 -8 -6 1 -2 6 -10 9 -15 6 -7 -4 -8 -2 -4 5 9 13 26 5 25
-12z m321 -17 c0 -5 -4 -10 -9 -10 -6 0 -13 5 -16 10 -3 6 1 10 9 10 9 0 16
-4 16 -10z m388 -120 c-2 -6 -8 -6 -18 0 -13 9 -13 11 0 20 15 10 25 0 18 -20z
m-1071 5 c0 -8 -4 -12 -9 -9 -4 3 -8 9 -8 15 0 5 4 9 8 9 5 0 9 -7 9 -15z
m1058 -33 c-3 -3 -11 0 -18 7 -9 10 -8 11 6 5 10 -3 15 -9 12 -12z m-805 -25
c0 -2 -17 -19 -37 -38 l-38 -34 34 38 c33 34 41 42 41 34z m570 -32 c13 -14
21 -25 18 -25 -2 0 -15 11 -28 25 -13 14 -21 25 -18 25 2 0 15 -11 28 -25z"/>
<path d="M1575 1820 c3 -5 11 -10 16 -10 6 0 7 5 4 10 -3 6 -11 10 -16 10 -6
0 -7 -4 -4 -10z"/>
<path d="M1047 1584 c-3 -3 -3 -14 0 -25 7 -24 53 -27 53 -3 0 8 -4 13 -9 9
-5 -3 -16 1 -24 9 -8 8 -17 13 -20 10z"/>
<path d="M1947 1668 c-21 -17 -41 -68 -26 -68 8 0 7 -5 -1 -15 -27 -33 30
-135 75 -135 12 0 55 41 55 54 0 4 -10 -2 -22 -14 -30 -28 -56 -25 -71 8 -6
15 -14 29 -18 32 -9 8 -7 40 3 34 4 -3 8 -11 8 -19 0 -19 38 -29 55 -15 16 13
20 48 7 65 -8 12 -64 17 -57 5 3 -5 1 -11 -4 -14 -16 -10 -21 23 -6 38 8 8 15
20 15 27 0 8 10 9 32 5 17 -3 32 -7 33 -9 0 -1 8 -18 17 -37 14 -28 16 -30 13
-10 -2 14 -4 28 -4 33 -1 4 -10 16 -21 27 -23 23 -58 26 -83 8z"/>
<path d="M1848 1613 c7 -3 16 -2 19 1 4 3 -2 6 -13 5 -11 0 -14 -3 -6 -6z"/>
<path d="M2000 2272 c0 -5 10 -35 23 -68 13 -32 29 -87 37 -122 8 -41 19 -66
31 -73 25 -13 25 -1 -6 106 -28 94 -60 165 -75 165 -6 0 -10 -4 -10 -8z"/>
<path d="M1210 2140 c-11 -7 -9 -11 14 -19 15 -6 31 -9 36 -6 5 3 10 -1 13 -7
3 -10 8 -10 21 1 16 14 16 15 -1 25 -24 14 -44 17 -37 5 3 -5 0 -9 -5 -9 -6 0
-11 5 -11 10 0 12 -10 13 -30 0z"/>
<path d="M1486 2123 c-6 -14 -5 -15 5 -6 7 7 10 15 7 18 -3 3 -9 -2 -12 -12z"/>
<path d="M1224 2093 c2 -10 13 -19 24 -21 17 -3 20 1 16 13 -5 13 -9 13 -22 3
-11 -9 -13 -9 -9 -1 4 6 3 14 -2 17 -5 4 -8 -2 -7 -11z"/>
<path d="M1310 2095 c0 -9 6 -12 15 -9 8 4 12 10 9 15 -8 14 -24 10 -24 -6z"/>
<path d="M1354 2074 c1 -9 11 -21 22 -26 17 -8 17 -8 3 4 -9 7 -14 19 -12 26
3 6 0 12 -5 12 -6 0 -9 -7 -8 -16z"/>
<path d="M1636 2075 c-18 -14 -18 -14 1 -12 11 0 20 7 20 14 0 7 -1 13 -1 13
-1 0 -9 -7 -20 -15z"/>
<path d="M1305 2060 c3 -5 11 -10 16 -10 6 0 7 5 4 10 -3 6 -11 10 -16 10 -6
0 -7 -4 -4 -10z"/>
<path d="M1296 2028 c3 -5 10 -6 15 -3 13 9 11 12 -6 12 -8 0 -12 -4 -9 -9z"/>
<path d="M1333 2005 c0 -8 4 -12 9 -9 5 3 6 10 3 15 -9 13 -12 11 -12 -6z"/>
<path d="M1375 2000 c3 -5 8 -10 11 -10 2 0 4 5 4 10 0 6 -5 10 -11 10 -5 0
-7 -4 -4 -10z"/>
<path d="M1454 1979 c-7 -11 12 -29 31 -29 6 1 2 5 -8 11 -9 6 -15 14 -12 20
4 5 4 9 1 9 -3 0 -8 -5 -12 -11z"/>
<path d="M1390 1949 c0 -5 5 -7 10 -4 6 3 10 8 10 11 0 2 -4 4 -10 4 -5 0 -10
-5 -10 -11z"/>
<path d="M1330 1939 c0 -5 5 -7 10 -4 6 3 10 8 10 11 0 2 -4 4 -10 4 -5 0 -10
-5 -10 -11z"/>
<path d="M1410 1929 c0 -5 5 -7 10 -4 6 3 10 8 10 11 0 2 -4 4 -10 4 -5 0 -10
-5 -10 -11z"/>
<path d="M1361 1914 c0 -11 3 -14 6 -6 3 7 2 16 -1 19 -3 4 -6 -2 -5 -13z"/>
<path d="M1440 1900 c0 -6 -8 -10 -17 -8 -10 2 -19 -4 -21 -14 -4 -20 19 -18
42 4 10 10 12 19 6 23 -5 3 -10 1 -10 -5z"/>
<path d="M705 1590 c-3 -5 -1 -10 4 -10 6 0 11 5 11 10 0 6 -2 10 -4 10 -3 0
-8 -4 -11 -10z"/>
<path d="M1960 719 c0 -3 13 -17 28 -32 21 -20 29 -23 29 -12 0 8 -3 13 -5 10
-3 -3 -16 5 -29 17 -13 12 -23 19 -23 17z"/>
<path d="M1255 430 c-3 -6 1 -7 9 -4 18 7 21 14 7 14 -6 0 -13 -4 -16 -10z"/>
<path d="M1435 370 c10 -11 20 -20 23 -20 3 0 -3 9 -13 20 -10 11 -20 20 -23
20 -3 0 3 -9 13 -20z"/>
</g>
</svg>
